<svg xmlns="http://www.w3.org/2000/svg" viewBox="0 0 512 512">
  <path fill="#4285F4" d="M256 512c141.4 0 256-114.6 256-256S397.4 0 256 0 0 114.6 0 256s114.6 256 256 256z"/>
  <path fill="#E8F0FE" opacity=".3" d="M384 128c-35.3 0-64 28.7-64 64s28.7 64 64 64 64-28.7 64-64-28.7-64-64-64z"/>
  <path fill="#fff" d="M256 48c-114.9 0-208 93.1-208 208s93.1 208 208 208 208-93.1 208-208S370.9 48 256 48zm0 384c-97.2 0-176-78.8-176-176s78.8-176 176-176 176 78.8 176 176-78.8 176-176 176z"/>
  <path fill="#fff" d="M344 144c-5.5 0-10 4.5-10 10v44c0 5.5 4.5 10 10 10s10-4.5 10-10v-44c0-5.5-4.5-10-10-10zm-176 0c-5.5 0-10 4.5-10 10v44c0 5.5 4.5 10 10 10s10-4.5 10-10v-44c0-5.5-4.5-10-10-10zm88 160c-44.1 0-80 35.9-80 80h160c0-44.1-35.9-80-80-80z"/>
</svg>
